<svg width="512" height="512" viewBox="0 0 512 512" fill="none" xmlns="http://www.w3.org/2000/svg">
<path d="M334.092 147.331C334.092 167.949 317.378 184.662 296.761 184.662C276.143 184.662 259.43 167.949 259.43 147.331C259.43 126.714 276.143 110 296.761 110C317.378 110 334.092 126.714 334.092 147.331Z" fill="#6613A0"/>
<path fill-rule="evenodd" clip-rule="evenodd" d="M296.761 189.995C320.324 189.995 339.425 209.097 339.425 232.66V269.991H291.428C270.81 269.991 254.097 253.277 254.097 232.66C254.097 209.097 273.198 189.995 296.761 189.995ZM289.946 199.18C290.869 200.103 291.256 201.433 290.973 202.707L287.432 218.641C286.618 222.306 288.024 226.107 291.027 228.359C294.425 230.908 299.097 230.908 302.494 228.359C305.497 226.107 306.904 222.306 306.089 218.641L302.548 202.707C302.265 201.433 302.653 200.103 303.576 199.18C305.981 196.774 304.277 192.662 300.876 192.662H292.645C289.244 192.662 287.541 196.774 289.946 199.18Z" fill="#6613A0"/>
<path d="M242.471 163.56C242.471 181.601 227.847 196.225 209.806 196.225C191.766 196.225 177.141 181.601 177.141 163.56C177.141 145.52 191.766 130.896 209.806 130.896C227.847 130.896 242.471 145.52 242.471 163.56Z" fill="#6613A0"/>
<path d="M199.14 202.437C190.898 204.891 183.848 210.114 179.071 217.028C183.779 208.257 199.14 202.437 199.14 202.437Z" fill="#6613A0"/>
<path fill-rule="evenodd" clip-rule="evenodd" d="M247.138 238.223C247.138 217.605 230.424 200.892 209.806 200.892C206.1 200.892 202.52 201.432 199.14 202.437C199.14 202.437 183.779 208.257 179.071 217.028C174.911 223.049 172.475 230.351 172.475 238.223V270.888H214.473C232.513 270.888 247.138 256.263 247.138 238.223Z" fill="#6613A0"/>
<path d="M96.0163 402.797L92.7821 391.1H94.6347L96.9112 400.159H97.0211L99.3918 391.1H101.229L103.592 400.167H103.709L105.978 391.1H107.846L104.588 402.797H102.814L100.357 394.044H100.263L97.8061 402.797H96.0163ZM117.295 397.592V402.797H115.599V391.1H117.271V395.465H117.389C117.593 394.988 117.904 394.612 118.323 394.334C118.747 394.052 119.299 393.91 119.979 393.91C120.581 393.91 121.107 394.033 121.557 394.279C122.007 394.525 122.358 394.894 122.609 395.386C122.865 395.878 122.994 396.49 122.994 397.223V402.797H121.282V397.427C121.282 396.778 121.115 396.276 120.78 395.92C120.45 395.564 119.99 395.386 119.398 395.386C118.99 395.386 118.629 395.475 118.315 395.653C118.001 395.826 117.753 396.074 117.569 396.399C117.386 396.723 117.295 397.121 117.295 397.592ZM135.315 402.977C134.457 402.977 133.714 402.791 133.086 402.42C132.458 402.048 131.974 401.525 131.634 400.85C131.299 400.169 131.131 399.377 131.131 398.471C131.131 397.571 131.296 396.778 131.626 396.093C131.961 395.407 132.429 394.873 133.031 394.491C133.638 394.104 134.35 393.91 135.166 393.91C135.663 393.91 136.145 393.992 136.611 394.154C137.076 394.316 137.495 394.572 137.866 394.923C138.238 395.274 138.531 395.729 138.746 396.289C138.965 396.849 139.075 397.524 139.075 398.314V398.926H132.097V397.647H138.196L137.403 398.071C137.403 397.532 137.32 397.056 137.152 396.642C136.985 396.229 136.733 395.907 136.399 395.677C136.069 395.441 135.658 395.323 135.166 395.323C134.674 395.323 134.253 395.441 133.902 395.677C133.557 395.912 133.293 396.224 133.109 396.611C132.926 396.998 132.835 397.422 132.835 397.882V398.754C132.835 399.356 132.939 399.866 133.149 400.285C133.358 400.703 133.648 401.022 134.02 401.242C134.397 401.462 134.834 401.572 135.331 401.572C135.655 401.572 135.948 401.525 136.21 401.431C136.477 401.336 136.707 401.195 136.901 401.007C137.095 400.818 137.241 400.585 137.341 400.308L138.958 400.614C138.827 401.085 138.597 401.499 138.267 401.855C137.937 402.21 137.521 402.488 137.019 402.687C136.522 402.88 135.954 402.977 135.315 402.977ZM147.182 402.797V394.02H148.822V395.425H148.916C149.079 394.954 149.361 394.583 149.764 394.311C150.172 394.033 150.633 393.895 151.146 393.895C151.25 393.895 151.373 393.9 151.515 393.91C151.661 393.916 151.779 393.923 151.868 393.934V395.567C151.8 395.546 151.677 395.525 151.499 395.504C151.326 395.483 151.151 395.473 150.973 395.473C150.57 395.473 150.209 395.559 149.89 395.732C149.576 395.899 149.327 396.132 149.144 396.43C148.966 396.723 148.877 397.063 148.877 397.451V402.797H147.182ZM163.067 402.977C162.209 402.977 161.466 402.791 160.838 402.42C160.21 402.048 159.726 401.525 159.385 400.85C159.05 400.169 158.883 399.377 158.883 398.471C158.883 397.571 159.048 396.778 159.377 396.093C159.712 395.407 160.181 394.873 160.783 394.491C161.39 394.104 162.101 393.91 162.918 393.91C163.415 393.91 163.896 393.992 164.362 394.154C164.828 394.316 165.247 394.572 165.618 394.923C165.99 395.274 166.283 395.729 166.497 396.289C166.717 396.849 166.827 397.524 166.827 398.314V398.926H159.848V397.647H165.948L165.155 398.071C165.155 397.532 165.071 397.056 164.904 396.642C164.736 396.229 164.485 395.907 164.15 395.677C163.821 395.441 163.41 395.323 162.918 395.323C162.426 395.323 162.005 395.441 161.654 395.677C161.309 395.912 161.044 396.224 160.861 396.611C160.678 396.998 160.586 397.422 160.586 397.882V398.754C160.586 399.356 160.691 399.866 160.9 400.285C161.11 400.703 161.4 401.022 161.772 401.242C162.149 401.462 162.586 401.572 163.083 401.572C163.407 401.572 163.7 401.525 163.962 401.431C164.229 401.336 164.459 401.195 164.653 401.007C164.846 400.818 164.993 400.585 165.092 400.308L166.709 400.614C166.578 401.085 166.348 401.499 166.019 401.855C165.689 402.21 165.273 402.488 164.77 402.687C164.273 402.88 163.705 402.977 163.067 402.977ZM190.434 402.954C189.429 402.954 188.529 402.713 187.734 402.231C186.938 401.75 186.313 401.062 185.858 400.167C185.402 399.267 185.175 398.196 185.175 396.956C185.175 395.705 185.402 394.633 185.858 393.738C186.318 392.838 186.943 392.147 187.734 391.665C188.529 391.184 189.429 390.943 190.434 390.943C191.052 390.943 191.63 391.032 192.169 391.21C192.713 391.388 193.2 391.647 193.629 391.987C194.058 392.327 194.411 392.743 194.689 393.235C194.971 393.727 195.16 394.285 195.254 394.907H193.48C193.412 394.525 193.284 394.19 193.095 393.903C192.912 393.609 192.684 393.364 192.412 393.165C192.145 392.961 191.844 392.809 191.509 392.709C191.18 392.605 190.829 392.552 190.458 392.552C189.788 392.552 189.183 392.722 188.644 393.063C188.11 393.398 187.689 393.895 187.38 394.554C187.077 395.208 186.925 396.009 186.925 396.956C186.925 397.909 187.079 398.712 187.388 399.366C187.697 400.015 188.118 400.507 188.652 400.842C189.186 401.177 189.785 401.344 190.45 401.344C190.821 401.344 191.172 401.295 191.502 401.195C191.831 401.096 192.132 400.947 192.404 400.748C192.676 400.549 192.904 400.308 193.087 400.025C193.276 399.738 193.407 399.405 193.48 399.029H195.254C195.165 399.609 194.984 400.141 194.712 400.622C194.44 401.098 194.092 401.512 193.668 401.862C193.244 402.208 192.76 402.477 192.216 402.671C191.672 402.859 191.078 402.954 190.434 402.954ZM206.029 402.985C205.474 402.985 204.972 402.883 204.522 402.679C204.072 402.469 203.716 402.166 203.454 401.768C203.193 401.37 203.062 400.886 203.062 400.316C203.062 399.819 203.156 399.413 203.344 399.099C203.538 398.78 203.797 398.526 204.121 398.338C204.446 398.149 204.807 398.008 205.205 397.914C205.602 397.82 206.011 397.746 206.429 397.694C206.958 397.636 207.384 397.587 207.709 397.545C208.033 397.503 208.269 397.438 208.415 397.349C208.567 397.254 208.643 397.105 208.643 396.901V396.862C208.643 396.365 208.502 395.98 208.219 395.708C207.942 395.436 207.528 395.3 206.979 395.3C206.408 395.3 205.956 395.425 205.621 395.677C205.291 395.923 205.063 396.203 204.938 396.517L203.329 396.148C203.522 395.614 203.802 395.185 204.169 394.86C204.54 394.531 204.964 394.29 205.44 394.138C205.922 393.986 206.424 393.91 206.947 393.91C207.298 393.91 207.67 393.952 208.062 394.036C208.455 394.114 208.824 394.264 209.169 394.483C209.52 394.698 209.805 395.007 210.025 395.41C210.244 395.813 210.354 396.333 210.354 396.972V402.797H208.682V401.595H208.619C208.515 401.81 208.35 402.025 208.125 402.239C207.905 402.454 207.623 402.632 207.277 402.773C206.932 402.914 206.516 402.985 206.029 402.985ZM206.398 401.619C206.874 401.619 207.28 401.527 207.615 401.344C207.95 401.156 208.206 400.91 208.384 400.606C208.562 400.303 208.651 399.981 208.651 399.641V398.503C208.588 398.56 208.47 398.615 208.298 398.667C208.125 398.72 207.929 398.764 207.709 398.801C207.489 398.838 207.275 398.872 207.065 398.903C206.856 398.929 206.681 398.95 206.539 398.966C206.21 399.013 205.909 399.086 205.637 399.186C205.364 399.28 205.145 399.421 204.977 399.609C204.815 399.793 204.734 400.036 204.734 400.339C204.734 400.763 204.891 401.083 205.205 401.297C205.519 401.512 205.916 401.619 206.398 401.619ZM218.908 402.797V394.02H220.549V395.425H220.643C220.805 394.954 221.088 394.583 221.491 394.311C221.899 394.033 222.359 393.895 222.872 393.895C222.977 393.895 223.1 393.9 223.241 393.91C223.388 393.916 223.505 393.923 223.594 393.934V395.567C223.526 395.546 223.403 395.525 223.225 395.504C223.053 395.483 222.877 395.473 222.699 395.473C222.296 395.473 221.935 395.559 221.616 395.732C221.302 395.899 221.054 396.132 220.87 396.43C220.692 396.723 220.603 397.063 220.603 397.451V402.797H218.908ZM234.793 402.977C233.935 402.977 233.192 402.791 232.564 402.42C231.936 402.048 231.452 401.525 231.112 400.85C230.777 400.169 230.609 399.377 230.609 398.471C230.609 397.571 230.774 396.778 231.104 396.093C231.439 395.407 231.907 394.873 232.509 394.491C233.116 394.104 233.828 393.91 234.644 393.91C235.141 393.91 235.623 393.992 236.089 394.154C236.554 394.316 236.973 394.572 237.345 394.923C237.716 395.274 238.009 395.729 238.224 396.289C238.444 396.849 238.553 397.524 238.553 398.314V398.926H231.575V397.647H237.674L236.881 398.071C236.881 397.532 236.798 397.056 236.63 396.642C236.463 396.229 236.212 395.907 235.877 395.677C235.547 395.441 235.136 395.323 234.644 395.323C234.152 395.323 233.731 395.441 233.38 395.677C233.035 395.912 232.771 396.224 232.588 396.611C232.404 396.998 232.313 397.422 232.313 397.882V398.754C232.313 399.356 232.417 399.866 232.627 400.285C232.836 400.703 233.127 401.022 233.498 401.242C233.875 401.462 234.312 401.572 234.809 401.572C235.134 401.572 235.427 401.525 235.688 401.431C235.955 401.336 236.185 401.195 236.379 401.007C236.573 400.818 236.719 400.585 236.819 400.308L238.436 400.614C238.305 401.085 238.075 401.499 237.745 401.855C237.415 402.21 236.999 402.488 236.497 402.687C236 402.88 235.432 402.977 234.793 402.977ZM250.435 402.977C249.577 402.977 248.834 402.791 248.206 402.42C247.578 402.048 247.094 401.525 246.754 400.85C246.419 400.169 246.251 399.377 246.251 398.471C246.251 397.571 246.416 396.778 246.746 396.093C247.081 395.407 247.549 394.873 248.151 394.491C248.758 394.104 249.47 393.91 250.286 393.91C250.783 393.91 251.265 393.992 251.731 394.154C252.196 394.316 252.615 394.572 252.987 394.923C253.358 395.274 253.651 395.729 253.866 396.289C254.086 396.849 254.196 397.524 254.196 398.314V398.926H247.217V397.647H253.316L252.524 398.071C252.524 397.532 252.44 397.056 252.272 396.642C252.105 396.229 251.854 395.907 251.519 395.677C251.189 395.441 250.778 395.323 250.286 395.323C249.794 395.323 249.373 395.441 249.022 395.677C248.677 395.912 248.413 396.224 248.23 396.611C248.046 396.998 247.955 397.422 247.955 397.882V398.754C247.955 399.356 248.06 399.866 248.269 400.285C248.478 400.703 248.769 401.022 249.14 401.242C249.517 401.462 249.954 401.572 250.451 401.572C250.776 401.572 251.069 401.525 251.33 401.431C251.597 401.336 251.827 401.195 252.021 401.007C252.215 400.818 252.361 400.585 252.461 400.308L254.078 400.614C253.947 401.085 253.717 401.499 253.387 401.855C253.057 402.21 252.641 402.488 252.139 402.687C251.642 402.88 251.074 402.977 250.435 402.977ZM262.302 402.797V394.02H263.942V395.425H264.037C264.199 394.954 264.481 394.583 264.884 394.311C265.293 394.033 265.753 393.895 266.266 393.895C266.371 393.895 266.494 393.9 266.635 393.91C266.781 393.916 266.899 393.923 266.988 393.934V395.567C266.92 395.546 266.797 395.525 266.619 395.504C266.446 395.483 266.271 395.473 266.093 395.473C265.69 395.473 265.329 395.559 265.01 395.732C264.696 395.899 264.447 396.132 264.264 396.43C264.086 396.723 263.997 397.063 263.997 397.451V402.797H262.302ZM281.288 396.171L279.741 396.438C279.642 396.145 279.456 395.875 279.184 395.63C278.917 395.384 278.517 395.261 277.983 395.261C277.502 395.261 277.099 395.37 276.774 395.59C276.455 395.805 276.295 396.08 276.295 396.415C276.295 396.708 276.403 396.946 276.617 397.129C276.837 397.312 277.185 397.459 277.661 397.568L279.066 397.882C279.867 398.066 280.466 398.353 280.864 398.746C281.262 399.138 281.461 399.641 281.461 400.253C281.461 400.782 281.309 401.253 281.005 401.666C280.702 402.074 280.28 402.396 279.741 402.632C279.202 402.862 278.58 402.977 277.873 402.977C276.889 402.977 276.089 402.765 275.471 402.341C274.854 401.917 274.474 401.321 274.333 400.551L275.973 400.3C276.078 400.729 276.29 401.054 276.609 401.274C276.934 401.493 277.352 401.603 277.865 401.603C278.42 401.603 278.865 401.486 279.2 401.25C279.54 401.015 279.71 400.729 279.71 400.394C279.71 399.84 279.297 399.466 278.47 399.272L276.986 398.942C276.164 398.754 275.557 398.458 275.165 398.055C274.778 397.647 274.584 397.134 274.584 396.517C274.584 395.998 274.728 395.543 275.016 395.151C275.309 394.758 275.709 394.455 276.217 394.24C276.73 394.02 277.313 393.91 277.967 393.91C278.92 393.91 279.666 394.117 280.205 394.531C280.749 394.944 281.11 395.491 281.288 396.171ZM300.185 402.797V391.1H304.361C305.266 391.1 306.017 391.257 306.614 391.571C307.211 391.88 307.658 392.312 307.956 392.866C308.255 393.416 308.404 394.052 308.404 394.774C308.404 395.486 308.255 396.114 307.956 396.658C307.658 397.202 307.208 397.623 306.606 397.922C306.009 398.22 305.256 398.369 304.345 398.369H301.197V396.862H304.18C304.761 396.862 305.23 396.778 305.586 396.611C305.947 396.443 306.208 396.205 306.371 395.896C306.538 395.588 306.622 395.213 306.622 394.774C306.622 394.329 306.538 393.947 306.371 393.628C306.203 393.303 305.939 393.055 305.578 392.882C305.222 392.704 304.753 392.615 304.173 392.615H301.951V402.797H300.185ZM306.842 402.797L304.008 397.514H305.962L308.851 402.797H306.842ZM316.675 402.797V394.02H318.37V402.797H316.675ZM317.53 392.67C317.232 392.67 316.978 392.571 316.769 392.372C316.56 392.173 316.455 391.935 316.455 391.657C316.455 391.375 316.56 391.134 316.769 390.935C316.978 390.736 317.232 390.637 317.53 390.637C317.823 390.637 318.075 390.736 318.284 390.935C318.499 391.134 318.606 391.375 318.606 391.657C318.606 391.935 318.499 392.173 318.284 392.372C318.075 392.571 317.823 392.67 317.53 392.67ZM333.479 396.171L331.932 396.438C331.833 396.145 331.647 395.875 331.375 395.63C331.108 395.384 330.708 395.261 330.174 395.261C329.692 395.261 329.289 395.37 328.965 395.59C328.646 395.805 328.486 396.08 328.486 396.415C328.486 396.708 328.593 396.946 328.808 397.129C329.028 397.312 329.376 397.459 329.852 397.568L331.257 397.882C332.058 398.066 332.657 398.353 333.055 398.746C333.452 399.138 333.651 399.641 333.651 400.253C333.651 400.782 333.5 401.253 333.196 401.666C332.892 402.074 332.471 402.396 331.932 402.632C331.393 402.862 330.77 402.977 330.064 402.977C329.08 402.977 328.279 402.765 327.662 402.341C327.044 401.917 326.665 401.321 326.524 400.551L328.164 400.3C328.269 400.729 328.481 401.054 328.8 401.274C329.124 401.493 329.543 401.603 330.056 401.603C330.611 401.603 331.056 401.486 331.391 401.25C331.731 401.015 331.901 400.729 331.901 400.394C331.901 399.84 331.487 399.466 330.66 399.272L329.177 398.942C328.355 398.754 327.748 398.458 327.356 398.055C326.968 397.647 326.775 397.134 326.775 396.517C326.775 395.998 326.919 395.543 327.206 395.151C327.5 394.758 327.9 394.455 328.408 394.24C328.92 394.02 329.504 393.91 330.158 393.91C331.111 393.91 331.856 394.117 332.395 394.531C332.94 394.944 333.301 395.491 333.479 396.171ZM345.533 402.977C344.675 402.977 343.932 402.791 343.304 402.42C342.676 402.048 342.192 401.525 341.852 400.85C341.517 400.169 341.349 399.377 341.349 398.471C341.349 397.571 341.514 396.778 341.844 396.093C342.179 395.407 342.647 394.873 343.249 394.491C343.856 394.104 344.568 393.91 345.384 393.91C345.881 393.91 346.363 393.992 346.828 394.154C347.294 394.316 347.713 394.572 348.084 394.923C348.456 395.274 348.749 395.729 348.964 396.289C349.183 396.849 349.293 397.524 349.293 398.314V398.926H342.315V397.647H348.414L347.621 398.071C347.621 397.532 347.538 397.056 347.37 396.642C347.203 396.229 346.951 395.907 346.617 395.677C346.287 395.441 345.876 395.323 345.384 395.323C344.892 395.323 344.471 395.441 344.12 395.677C343.775 395.912 343.511 396.224 343.327 396.611C343.144 396.998 343.053 397.422 343.053 397.882V398.754C343.053 399.356 343.157 399.866 343.367 400.285C343.576 400.703 343.866 401.022 344.238 401.242C344.615 401.462 345.052 401.572 345.549 401.572C345.873 401.572 346.166 401.525 346.428 401.431C346.695 401.336 346.925 401.195 347.119 401.007C347.313 400.818 347.459 400.585 347.559 400.308L349.176 400.614C349.045 401.085 348.815 401.499 348.485 401.855C348.155 402.21 347.739 402.488 347.237 402.687C346.74 402.88 346.172 402.977 345.533 402.977Z" fill="#1B1B1B"/>
<path d="M92.8948 373.099L125.216 334.325H94.5806V322.176H145.213V331.244L113.125 369.786H146.667V381.993H92.8948V373.099ZM149.087 352.114C149.087 347.734 149.901 343.626 151.529 339.79C153.156 335.914 155.424 332.543 158.33 329.675C161.275 326.807 164.763 324.54 168.794 322.873C172.824 321.207 177.223 320.374 181.99 320.374C186.795 320.374 191.213 321.207 195.244 322.873C199.313 324.54 202.801 326.807 205.707 329.675C208.653 332.543 210.939 335.914 212.567 339.79C214.233 343.626 215.067 347.734 215.067 352.114C215.067 356.532 214.253 360.659 212.625 364.496C210.997 368.332 208.711 371.685 205.766 374.552C202.82 377.42 199.313 379.687 195.244 381.354C191.213 382.982 186.776 383.795 181.932 383.795C177.165 383.795 172.766 382.982 168.736 381.354C164.744 379.687 161.295 377.42 158.388 374.552C155.482 371.685 153.195 368.332 151.529 364.496C149.901 360.62 149.087 356.493 149.087 352.114ZM163.213 352.055C163.213 354.923 163.698 357.559 164.666 359.961C165.674 362.325 167.03 364.379 168.736 366.123C170.441 367.829 172.437 369.166 174.723 370.134C177.01 371.103 179.471 371.588 182.106 371.588C184.741 371.588 187.202 371.123 189.489 370.193C191.775 369.224 193.771 367.887 195.476 366.181C197.181 364.438 198.518 362.364 199.487 359.961C200.495 357.559 200.999 354.923 200.999 352.055C200.999 349.226 200.495 346.63 199.487 344.266C198.518 341.863 197.181 339.809 195.476 338.104C193.771 336.399 191.756 335.062 189.431 334.093C187.144 333.124 184.702 332.64 182.106 332.64C179.471 332.64 177.01 333.124 174.723 334.093C172.437 335.023 170.441 336.36 168.736 338.104C167.03 339.809 165.674 341.863 164.666 344.266C163.698 346.63 163.213 349.226 163.213 352.055ZM287.826 352.114C287.826 356.493 287.051 360.62 285.501 364.496C283.951 368.332 281.781 371.685 278.99 374.552C276.2 377.42 272.828 379.687 268.876 381.354C264.961 383.02 260.621 383.853 255.854 383.853C253.606 383.853 251.455 383.621 249.401 383.156C247.386 382.73 245.487 382.129 243.705 381.354C241.922 380.579 240.275 379.687 238.763 378.68C237.291 377.633 235.973 376.548 234.81 375.424L233.997 381.993H221.847V300.086H235.973V327.931C238.337 325.761 241.205 323.959 244.577 322.525C247.948 321.052 251.785 320.316 256.087 320.316C260.892 320.316 265.233 321.149 269.108 322.815C273.022 324.482 276.355 326.768 279.107 329.675C281.897 332.543 284.048 335.914 285.559 339.79C287.071 343.626 287.826 347.734 287.826 352.114ZM273.7 352.055C273.7 349.226 273.197 346.63 272.189 344.266C271.22 341.863 269.864 339.809 268.12 338.104C266.415 336.36 264.399 335.023 262.074 334.093C259.749 333.124 257.249 332.64 254.575 332.64C251.901 332.64 249.401 333.124 247.076 334.093C244.751 335.062 242.716 336.399 240.972 338.104C239.228 339.809 237.853 341.863 236.845 344.266C235.837 346.63 235.334 349.226 235.334 352.055C235.334 354.962 235.837 357.617 236.845 360.02C237.853 362.384 239.209 364.438 240.914 366.181C242.658 367.887 244.693 369.224 247.018 370.193C249.343 371.123 251.843 371.588 254.517 371.588C257.152 371.588 259.633 371.123 261.958 370.193C264.283 369.224 266.318 367.887 268.062 366.181C269.806 364.438 271.181 362.364 272.189 359.961C273.197 357.559 273.7 354.923 273.7 352.055ZM360.644 352.114C360.644 356.493 359.869 360.62 358.319 364.496C356.769 368.332 354.599 371.685 351.808 374.552C349.018 377.42 345.646 379.687 341.694 381.354C337.779 383.02 333.439 383.853 328.672 383.853C326.424 383.853 324.273 383.621 322.219 383.156C320.204 382.73 318.305 382.129 316.523 381.354C314.74 380.579 313.093 379.687 311.581 378.68C310.109 377.633 308.791 376.548 307.628 375.424L306.815 381.993H294.665V300.086H308.791V327.931C311.155 325.761 314.023 323.959 317.395 322.525C320.766 321.052 324.603 320.316 328.905 320.316C333.71 320.316 338.051 321.149 341.926 322.815C345.84 324.482 349.173 326.768 351.925 329.675C354.715 332.543 356.866 335.914 358.377 339.79C359.889 343.626 360.644 347.734 360.644 352.114ZM346.518 352.055C346.518 349.226 346.015 346.63 345.007 344.266C344.038 341.863 342.682 339.809 340.938 338.104C339.233 336.36 337.217 335.023 334.892 334.093C332.567 333.124 330.067 332.64 327.393 332.64C324.719 332.64 322.219 333.124 319.894 334.093C317.569 335.062 315.534 336.399 313.79 338.104C312.046 339.809 310.671 341.863 309.663 344.266C308.655 346.63 308.152 349.226 308.152 352.055C308.152 354.962 308.655 357.617 309.663 360.02C310.671 362.384 312.027 364.438 313.732 366.181C315.476 367.887 317.511 369.224 319.836 370.193C322.161 371.123 324.661 371.588 327.335 371.588C329.97 371.588 332.451 371.123 334.776 370.193C337.101 369.224 339.136 367.887 340.88 366.181C342.624 364.438 343.999 362.364 345.007 359.961C346.015 357.559 346.518 354.923 346.518 352.055ZM421.487 322.176L395.909 380.656C394.049 385.113 392.305 388.737 390.678 391.527C389.089 394.317 387.364 396.487 385.504 398.038C383.682 399.588 381.609 400.634 379.284 401.177C376.997 401.758 374.246 402.049 371.029 402.049H361.67L361.612 390.422H371.843C373.083 390.422 374.149 390.132 375.04 389.55C375.932 389.008 376.726 388.213 377.424 387.167C378.16 386.159 378.838 384.919 379.458 383.447C380.078 382.013 380.756 380.404 381.493 378.622L357.077 322.176H372.715L388.643 360.194L389.341 363.217L406.315 322.234L421.487 322.176Z" fill="#010329"/>
</svg>
