<svg width="512" height="236" viewBox="0 0 512 236" fill="none" xmlns="http://www.w3.org/2000/svg">
<path d="M154.995 87.3312C154.995 101.874 143.206 113.662 128.664 113.662C114.121 113.662 102.332 101.874 102.332 87.3312C102.332 72.7889 114.121 61 128.664 61C143.206 61 154.995 72.7889 154.995 87.3312Z" fill="#6613A0"/>
<path fill-rule="evenodd" clip-rule="evenodd" d="M128.664 117.424C145.283 117.424 158.756 130.897 158.756 147.517V173.848H124.902C110.36 173.848 98.5709 162.059 98.5709 147.517C98.5709 130.897 112.044 117.424 128.664 117.424ZM123.857 123.902C124.508 124.553 124.781 125.491 124.581 126.39L122.084 137.629C121.51 140.214 122.501 142.895 124.619 144.484C127.016 146.281 130.311 146.281 132.708 144.484C134.826 142.895 135.818 140.214 135.244 137.629L132.746 126.39C132.546 125.491 132.82 124.553 133.471 123.902C135.167 122.205 133.966 119.305 131.566 119.305H125.761C123.362 119.305 122.16 122.205 123.857 123.902Z" fill="#6613A0"/>
<path d="M90.371 98.7783C90.371 111.503 80.0557 121.818 67.3312 121.818C54.6067 121.818 44.2914 111.503 44.2914 98.7783C44.2914 86.0537 54.6067 75.7385 67.3312 75.7385C80.0557 75.7385 90.371 86.0537 90.371 98.7783Z" fill="#6613A0"/>
<path d="M59.808 126.2C53.9941 127.93 49.0217 131.614 45.6524 136.491C48.9731 130.305 59.808 126.2 59.808 126.2Z" fill="#6613A0"/>
<path fill-rule="evenodd" clip-rule="evenodd" d="M93.6624 151.441C93.6624 136.898 81.8735 125.109 67.3312 125.109C64.717 125.109 62.1918 125.49 59.808 126.2C59.808 126.2 48.9731 130.305 45.6524 136.491C42.7184 140.738 41 145.889 41 151.441V174.48H70.6226C83.3471 174.48 93.6624 164.165 93.6624 151.441Z" fill="#6613A0"/>
<path d="M185.594 160.781L182.775 150.585H184.39L186.374 158.482H186.47L188.537 150.585H190.138L192.198 158.489H192.301L194.278 150.585H195.907L193.067 160.781H191.521L189.379 153.151H189.296L187.155 160.781H185.594ZM204.144 156.244V160.781H202.666V150.585H204.123V154.389H204.226C204.404 153.974 204.675 153.646 205.04 153.404C205.41 153.158 205.891 153.035 206.484 153.035C207.009 153.035 207.467 153.142 207.86 153.356C208.252 153.571 208.558 153.892 208.777 154.321C209 154.75 209.112 155.284 209.112 155.922V160.781H207.62V156.1C207.62 155.535 207.474 155.097 207.182 154.786C206.895 154.476 206.493 154.321 205.978 154.321C205.622 154.321 205.307 154.399 205.033 154.554C204.76 154.704 204.543 154.921 204.383 155.204C204.224 155.487 204.144 155.833 204.144 156.244ZM219.853 160.938C219.105 160.938 218.457 160.776 217.91 160.453C217.362 160.129 216.94 159.672 216.644 159.084C216.352 158.491 216.206 157.8 216.206 157.01C216.206 156.226 216.349 155.535 216.637 154.937C216.929 154.339 217.337 153.874 217.862 153.541C218.391 153.203 219.011 153.035 219.723 153.035C220.157 153.035 220.576 153.105 220.982 153.247C221.388 153.388 221.753 153.612 222.077 153.917C222.401 154.223 222.657 154.62 222.844 155.108C223.035 155.596 223.131 156.185 223.131 156.874V157.407H217.048V156.292H222.365L221.673 156.661C221.673 156.192 221.601 155.776 221.455 155.416C221.309 155.056 221.09 154.775 220.798 154.574C220.51 154.369 220.152 154.266 219.723 154.266C219.294 154.266 218.927 154.369 218.621 154.574C218.32 154.78 218.09 155.051 217.93 155.389C217.771 155.726 217.691 156.096 217.691 156.497V157.257C217.691 157.781 217.782 158.226 217.964 158.591C218.147 158.956 218.4 159.234 218.724 159.426C219.053 159.618 219.433 159.713 219.867 159.713C220.15 159.713 220.405 159.672 220.633 159.59C220.866 159.508 221.067 159.385 221.236 159.221C221.404 159.057 221.532 158.854 221.619 158.612L223.028 158.879C222.914 159.289 222.714 159.65 222.426 159.96C222.139 160.27 221.776 160.512 221.338 160.685C220.905 160.854 220.41 160.938 219.853 160.938ZM230.198 160.781V153.13H231.628V154.355H231.71C231.851 153.945 232.098 153.621 232.449 153.384C232.805 153.142 233.206 153.021 233.653 153.021C233.745 153.021 233.852 153.025 233.975 153.035C234.103 153.039 234.205 153.046 234.283 153.055V154.478C234.224 154.46 234.117 154.442 233.961 154.424C233.811 154.405 233.658 154.396 233.503 154.396C233.152 154.396 232.837 154.472 232.559 154.622C232.285 154.768 232.068 154.971 231.908 155.231C231.753 155.487 231.676 155.783 231.676 156.121V160.781H230.198ZM244.046 160.938C243.298 160.938 242.65 160.776 242.102 160.453C241.555 160.129 241.133 159.672 240.836 159.084C240.544 158.491 240.398 157.8 240.398 157.01C240.398 156.226 240.542 155.535 240.829 154.937C241.121 154.339 241.53 153.874 242.054 153.541C242.584 153.203 243.204 153.035 243.916 153.035C244.349 153.035 244.769 153.105 245.175 153.247C245.581 153.388 245.946 153.612 246.27 153.917C246.594 154.223 246.849 154.62 247.036 155.108C247.228 155.596 247.324 156.185 247.324 156.874V157.407H241.24V156.292H246.557L245.866 156.661C245.866 156.192 245.793 155.776 245.647 155.416C245.501 155.056 245.282 154.775 244.99 154.574C244.703 154.369 244.345 154.266 243.916 154.266C243.487 154.266 243.12 154.369 242.814 154.574C242.513 154.78 242.283 155.051 242.123 155.389C241.963 155.726 241.883 156.096 241.883 156.497V157.257C241.883 157.781 241.975 158.226 242.157 158.591C242.34 158.956 242.593 159.234 242.917 159.426C243.245 159.618 243.626 159.713 244.059 159.713C244.342 159.713 244.598 159.672 244.826 159.59C245.059 159.508 245.259 159.385 245.428 159.221C245.597 159.057 245.725 158.854 245.811 158.612L247.221 158.879C247.107 159.289 246.906 159.65 246.619 159.96C246.331 160.27 245.969 160.512 245.531 160.685C245.097 160.854 244.602 160.938 244.046 160.938ZM267.903 160.918C267.027 160.918 266.242 160.708 265.549 160.288C264.856 159.869 264.31 159.269 263.913 158.489C263.517 157.704 263.318 156.771 263.318 155.69C263.318 154.599 263.517 153.664 263.913 152.884C264.315 152.099 264.86 151.497 265.549 151.077C266.242 150.658 267.027 150.448 267.903 150.448C268.441 150.448 268.945 150.525 269.415 150.68C269.89 150.836 270.314 151.061 270.688 151.358C271.062 151.654 271.37 152.017 271.612 152.446C271.858 152.875 272.023 153.361 272.105 153.904H270.558C270.499 153.571 270.387 153.279 270.223 153.028C270.063 152.772 269.865 152.558 269.628 152.384C269.395 152.206 269.133 152.074 268.841 151.988C268.553 151.896 268.247 151.851 267.924 151.851C267.34 151.851 266.813 151.999 266.343 152.295C265.877 152.587 265.51 153.021 265.241 153.596C264.976 154.166 264.844 154.864 264.844 155.69C264.844 156.52 264.979 157.22 265.248 157.791C265.517 158.356 265.884 158.785 266.35 159.077C266.815 159.369 267.337 159.515 267.917 159.515C268.241 159.515 268.546 159.472 268.834 159.385C269.121 159.298 269.383 159.168 269.621 158.995C269.858 158.822 270.056 158.612 270.216 158.365C270.38 158.114 270.494 157.825 270.558 157.496H272.105C272.027 158.003 271.87 158.466 271.633 158.885C271.395 159.301 271.092 159.661 270.722 159.967C270.353 160.268 269.931 160.503 269.456 160.672C268.982 160.836 268.464 160.918 267.903 160.918ZM281.498 160.945C281.014 160.945 280.576 160.856 280.184 160.678C279.792 160.496 279.482 160.231 279.253 159.885C279.025 159.538 278.911 159.116 278.911 158.619C278.911 158.185 278.993 157.832 279.158 157.558C279.326 157.28 279.552 157.058 279.835 156.894C280.118 156.73 280.433 156.607 280.779 156.525C281.126 156.442 281.482 156.379 281.847 156.333C282.308 156.283 282.68 156.239 282.962 156.203C283.245 156.166 283.451 156.109 283.578 156.032C283.711 155.95 283.777 155.82 283.777 155.642V155.608C283.777 155.174 283.654 154.839 283.407 154.602C283.165 154.364 282.805 154.246 282.326 154.246C281.829 154.246 281.434 154.355 281.142 154.574C280.855 154.789 280.656 155.033 280.547 155.306L279.144 154.985C279.313 154.519 279.557 154.145 279.876 153.863C280.2 153.575 280.57 153.365 280.985 153.233C281.404 153.101 281.842 153.035 282.299 153.035C282.604 153.035 282.928 153.071 283.27 153.144C283.613 153.212 283.934 153.342 284.235 153.534C284.541 153.721 284.79 153.99 284.981 154.342C285.173 154.693 285.269 155.147 285.269 155.703V160.781H283.811V159.734H283.756C283.665 159.921 283.521 160.108 283.325 160.295C283.133 160.482 282.887 160.637 282.586 160.76C282.285 160.884 281.922 160.945 281.498 160.945ZM281.82 159.755C282.235 159.755 282.588 159.675 282.88 159.515C283.172 159.351 283.396 159.136 283.551 158.872C283.706 158.607 283.784 158.327 283.784 158.03V157.038C283.729 157.088 283.626 157.136 283.476 157.181C283.325 157.227 283.154 157.266 282.962 157.298C282.771 157.33 282.584 157.359 282.401 157.387C282.219 157.41 282.066 157.428 281.943 157.442C281.655 157.483 281.393 157.546 281.156 157.633C280.919 157.715 280.727 157.838 280.581 158.003C280.44 158.162 280.369 158.374 280.369 158.639C280.369 159.009 280.506 159.287 280.779 159.474C281.053 159.661 281.4 159.755 281.82 159.755ZM292.725 160.781V153.13H294.155V154.355H294.238C294.379 153.945 294.625 153.621 294.977 153.384C295.332 153.142 295.734 153.021 296.181 153.021C296.272 153.021 296.379 153.025 296.503 153.035C296.63 153.039 296.733 153.046 296.811 153.055V154.478C296.751 154.46 296.644 154.442 296.489 154.424C296.338 154.405 296.186 154.396 296.03 154.396C295.679 154.396 295.364 154.472 295.086 154.622C294.812 154.768 294.596 154.971 294.436 155.231C294.281 155.487 294.203 155.783 294.203 156.121V160.781H292.725ZM306.573 160.938C305.825 160.938 305.177 160.776 304.63 160.453C304.082 160.129 303.66 159.672 303.364 159.084C303.072 158.491 302.926 157.8 302.926 157.01C302.926 156.226 303.07 155.535 303.357 154.937C303.649 154.339 304.057 153.874 304.582 153.541C305.111 153.203 305.732 153.035 306.443 153.035C306.877 153.035 307.296 153.105 307.702 153.247C308.108 153.388 308.473 153.612 308.797 153.917C309.121 154.223 309.377 154.62 309.564 155.108C309.755 155.596 309.851 156.185 309.851 156.874V157.407H303.768V156.292H309.085L308.394 156.661C308.394 156.192 308.321 155.776 308.175 155.416C308.029 155.056 307.81 154.775 307.518 154.574C307.23 154.369 306.872 154.266 306.443 154.266C306.014 154.266 305.647 154.369 305.342 154.574C305.04 154.78 304.81 155.051 304.65 155.389C304.491 155.726 304.411 156.096 304.411 156.497V157.257C304.411 157.781 304.502 158.226 304.685 158.591C304.867 158.956 305.12 159.234 305.444 159.426C305.773 159.618 306.154 159.713 306.587 159.713C306.87 159.713 307.125 159.672 307.353 159.59C307.586 159.508 307.787 159.385 307.956 159.221C308.124 159.057 308.252 158.854 308.339 158.612L309.749 158.879C309.634 159.289 309.434 159.65 309.146 159.96C308.859 160.27 308.496 160.512 308.058 160.685C307.625 160.854 307.13 160.938 306.573 160.938ZM320.209 160.938C319.461 160.938 318.813 160.776 318.266 160.453C317.718 160.129 317.296 159.672 317 159.084C316.708 158.491 316.562 157.8 316.562 157.01C316.562 156.226 316.706 155.535 316.993 154.937C317.285 154.339 317.693 153.874 318.218 153.541C318.747 153.203 319.368 153.035 320.079 153.035C320.513 153.035 320.932 153.105 321.338 153.247C321.744 153.388 322.109 153.612 322.433 153.917C322.757 154.223 323.013 154.62 323.2 155.108C323.391 155.596 323.487 156.185 323.487 156.874V157.407H317.404V156.292H322.721L322.03 156.661C322.03 156.192 321.957 155.776 321.811 155.416C321.665 155.056 321.446 154.775 321.154 154.574C320.866 154.369 320.508 154.266 320.079 154.266C319.65 154.266 319.283 154.369 318.978 154.574C318.676 154.78 318.446 155.051 318.286 155.389C318.127 155.726 318.047 156.096 318.047 156.497V157.257C318.047 157.781 318.138 158.226 318.321 158.591C318.503 158.956 318.756 159.234 319.08 159.426C319.409 159.618 319.79 159.713 320.223 159.713C320.506 159.713 320.761 159.672 320.989 159.59C321.222 159.508 321.423 159.385 321.592 159.221C321.76 159.057 321.888 158.854 321.975 158.612L323.385 158.879C323.271 159.289 323.07 159.65 322.782 159.96C322.495 160.27 322.132 160.512 321.694 160.685C321.261 160.854 320.766 160.938 320.209 160.938ZM330.554 160.781V153.13H331.984V154.355H332.066C332.208 153.945 332.454 153.621 332.805 153.384C333.161 153.142 333.562 153.021 334.01 153.021C334.101 153.021 334.208 153.025 334.331 153.035C334.459 153.039 334.562 153.046 334.639 153.055V154.478C334.58 154.46 334.473 154.442 334.318 154.424C334.167 154.405 334.014 154.396 333.859 154.396C333.508 154.396 333.193 154.472 332.915 154.622C332.641 154.768 332.424 154.971 332.265 155.231C332.109 155.487 332.032 155.783 332.032 156.121V160.781H330.554ZM347.105 155.005L345.757 155.238C345.67 154.983 345.508 154.748 345.271 154.533C345.038 154.319 344.689 154.212 344.224 154.212C343.804 154.212 343.453 154.307 343.17 154.499C342.892 154.686 342.753 154.926 342.753 155.217C342.753 155.473 342.846 155.681 343.033 155.84C343.225 156 343.528 156.128 343.943 156.223L345.168 156.497C345.866 156.657 346.389 156.908 346.735 157.25C347.082 157.592 347.256 158.03 347.256 158.564C347.256 159.025 347.123 159.435 346.859 159.796C346.594 160.151 346.227 160.432 345.757 160.637C345.287 160.838 344.744 160.938 344.128 160.938C343.27 160.938 342.572 160.754 342.034 160.384C341.496 160.015 341.165 159.494 341.042 158.824L342.472 158.605C342.563 158.979 342.748 159.262 343.026 159.453C343.309 159.645 343.674 159.741 344.121 159.741C344.605 159.741 344.993 159.638 345.285 159.433C345.581 159.228 345.729 158.979 345.729 158.687C345.729 158.203 345.369 157.877 344.648 157.708L343.355 157.421C342.639 157.257 342.109 156.999 341.767 156.648C341.43 156.292 341.261 155.845 341.261 155.306C341.261 154.855 341.386 154.458 341.637 154.116C341.893 153.774 342.242 153.509 342.684 153.322C343.131 153.13 343.64 153.035 344.21 153.035C345.041 153.035 345.691 153.215 346.161 153.575C346.635 153.936 346.95 154.412 347.105 155.005ZM363.578 160.781V150.585H367.219C368.008 150.585 368.663 150.722 369.183 150.995C369.703 151.264 370.093 151.641 370.353 152.124C370.613 152.603 370.743 153.158 370.743 153.787C370.743 154.408 370.613 154.955 370.353 155.43C370.093 155.904 369.701 156.271 369.176 156.531C368.656 156.791 367.999 156.921 367.205 156.921H364.461V155.608H367.062C367.568 155.608 367.976 155.535 368.287 155.389C368.601 155.243 368.829 155.035 368.971 154.766C369.117 154.497 369.19 154.17 369.19 153.787C369.19 153.399 369.117 153.066 368.971 152.788C368.825 152.505 368.594 152.289 368.28 152.138C367.969 151.983 367.561 151.905 367.055 151.905H365.118V160.781H363.578ZM369.381 160.781L366.911 156.176H368.615L371.133 160.781H369.381ZM377.953 160.781V153.13H379.432V160.781H377.953ZM378.699 151.953C378.439 151.953 378.218 151.867 378.036 151.693C377.853 151.52 377.762 151.312 377.762 151.071C377.762 150.824 377.853 150.614 378.036 150.441C378.218 150.268 378.439 150.181 378.699 150.181C378.955 150.181 379.174 150.268 379.356 150.441C379.543 150.614 379.637 150.824 379.637 151.071C379.637 151.312 379.543 151.52 379.356 151.693C379.174 151.867 378.955 151.953 378.699 151.953ZM392.602 155.005L391.254 155.238C391.167 154.983 391.006 154.748 390.768 154.533C390.536 154.319 390.187 154.212 389.721 154.212C389.302 154.212 388.95 154.307 388.667 154.499C388.389 154.686 388.25 154.926 388.25 155.217C388.25 155.473 388.344 155.681 388.531 155.84C388.722 156 389.026 156.128 389.441 156.223L390.666 156.497C391.364 156.657 391.886 156.908 392.233 157.25C392.579 157.592 392.753 158.03 392.753 158.564C392.753 159.025 392.621 159.435 392.356 159.796C392.091 160.151 391.724 160.432 391.254 160.637C390.784 160.838 390.241 160.938 389.625 160.938C388.768 160.938 388.07 160.754 387.531 160.384C386.993 160.015 386.662 159.494 386.539 158.824L387.969 158.605C388.061 158.979 388.245 159.262 388.524 159.453C388.807 159.645 389.172 159.741 389.619 159.741C390.102 159.741 390.49 159.638 390.782 159.433C391.079 159.228 391.227 158.979 391.227 158.687C391.227 158.203 390.866 157.877 390.146 157.708L388.852 157.421C388.136 157.257 387.607 156.999 387.265 156.648C386.927 156.292 386.758 155.845 386.758 155.306C386.758 154.855 386.884 154.458 387.135 154.116C387.39 153.774 387.739 153.509 388.182 153.322C388.629 153.13 389.137 153.035 389.708 153.035C390.538 153.035 391.188 153.215 391.658 153.575C392.132 153.936 392.447 154.412 392.602 155.005ZM403.111 160.938C402.363 160.938 401.715 160.776 401.167 160.453C400.62 160.129 400.198 159.672 399.901 159.084C399.609 158.491 399.464 157.8 399.464 157.01C399.464 156.226 399.607 155.535 399.895 154.937C400.187 154.339 400.595 153.874 401.12 153.541C401.649 153.203 402.269 153.035 402.981 153.035C403.414 153.035 403.834 153.105 404.24 153.247C404.646 153.388 405.011 153.612 405.335 153.917C405.659 154.223 405.914 154.62 406.101 155.108C406.293 155.596 406.389 156.185 406.389 156.874V157.407H400.305V156.292H405.622L404.931 156.661C404.931 156.192 404.858 155.776 404.712 155.416C404.566 155.056 404.347 154.775 404.055 154.574C403.768 154.369 403.41 154.266 402.981 154.266C402.552 154.266 402.185 154.369 401.879 154.574C401.578 154.78 401.348 155.051 401.188 155.389C401.028 155.726 400.948 156.096 400.948 156.497V157.257C400.948 157.781 401.04 158.226 401.222 158.591C401.405 158.956 401.658 159.234 401.982 159.426C402.31 159.618 402.691 159.713 403.125 159.713C403.407 159.713 403.663 159.672 403.891 159.59C404.124 159.508 404.324 159.385 404.493 159.221C404.662 159.057 404.79 158.854 404.876 158.612L406.286 158.879C406.172 159.289 405.971 159.65 405.684 159.96C405.397 160.27 405.034 160.512 404.596 160.685C404.162 160.854 403.668 160.938 403.111 160.938Z" fill="#1B1B1B"/>
<path d="M182.893 135.485L211.069 101.684H184.363V91.0925H228.502V98.998L200.529 132.596H229.769V143.238H182.893V135.485ZM231.879 117.191C231.879 113.373 232.589 109.792 234.008 106.447C235.426 103.069 237.403 100.13 239.937 97.6297C242.504 95.1297 245.545 93.1533 249.058 91.7006C252.572 90.2479 256.406 89.5215 260.562 89.5215C264.751 89.5215 268.603 90.2479 272.116 91.7006C275.663 93.1533 278.704 95.1297 281.238 97.6297C283.805 100.13 285.799 103.069 287.218 106.447C288.67 109.792 289.397 113.373 289.397 117.191C289.397 121.042 288.687 124.64 287.268 127.985C285.849 131.329 283.856 134.252 281.288 136.752C278.721 139.252 275.663 141.228 272.116 142.681C268.603 144.1 264.734 144.809 260.511 144.809C256.356 144.809 252.521 144.1 249.008 142.681C245.528 141.228 242.521 139.252 239.987 136.752C237.453 134.252 235.46 131.329 234.008 127.985C232.589 124.606 231.879 121.008 231.879 117.191ZM244.193 117.14C244.193 119.64 244.616 121.937 245.46 124.032C246.339 126.093 247.521 127.883 249.008 129.404C250.494 130.89 252.234 132.056 254.227 132.9C256.221 133.745 258.366 134.167 260.663 134.167C262.961 134.167 265.106 133.762 267.099 132.951C269.092 132.107 270.832 130.941 272.319 129.454C273.805 127.934 274.971 126.127 275.815 124.032C276.694 121.937 277.133 119.64 277.133 117.14C277.133 114.674 276.694 112.41 275.815 110.349C274.971 108.255 273.805 106.464 272.319 104.978C270.832 103.491 269.076 102.326 267.048 101.481C265.055 100.637 262.927 100.214 260.663 100.214C258.366 100.214 256.221 100.637 254.227 101.481C252.234 102.292 250.494 103.458 249.008 104.978C247.521 106.464 246.339 108.255 245.46 110.349C244.616 112.41 244.193 114.674 244.193 117.14ZM352.825 117.191C352.825 121.008 352.149 124.606 350.798 127.985C349.447 131.329 347.555 134.252 345.122 136.752C342.69 139.252 339.751 141.228 336.305 142.681C332.893 144.134 329.109 144.86 324.953 144.86C322.994 144.86 321.119 144.657 319.328 144.252C317.571 143.88 315.916 143.357 314.362 142.681C312.808 142.005 311.372 141.228 310.054 140.35C308.771 139.438 307.622 138.492 306.608 137.512L305.899 143.238H295.308V71.8355H307.622V96.1094C309.683 94.2175 312.183 92.6466 315.122 91.3965C318.061 90.1127 321.406 89.4708 325.156 89.4708C329.345 89.4708 333.129 90.1972 336.507 91.6499C339.92 93.1026 342.825 95.0959 345.224 97.6297C347.656 100.13 349.531 103.069 350.849 106.447C352.166 109.792 352.825 113.373 352.825 117.191ZM340.511 117.14C340.511 114.674 340.072 112.41 339.193 110.349C338.349 108.255 337.166 106.464 335.646 104.978C334.159 103.458 332.403 102.292 330.376 101.481C328.349 100.637 326.169 100.214 323.838 100.214C321.507 100.214 319.328 100.637 317.301 101.481C315.274 102.326 313.5 103.491 311.98 104.978C310.46 106.464 309.26 108.255 308.382 110.349C307.504 112.41 307.064 114.674 307.064 117.14C307.064 119.674 307.504 121.988 308.382 124.083C309.26 126.144 310.443 127.934 311.929 129.454C313.45 130.941 315.223 132.107 317.25 132.951C319.277 133.762 321.457 134.167 323.788 134.167C326.085 134.167 328.247 133.762 330.274 132.951C332.301 132.107 334.075 130.941 335.595 129.454C337.116 127.934 338.315 126.127 339.193 124.032C340.072 121.937 340.511 119.64 340.511 117.14ZM416.304 117.191C416.304 121.008 415.629 124.606 414.277 127.985C412.926 131.329 411.034 134.252 408.602 136.752C406.169 139.252 403.23 141.228 399.784 142.681C396.372 144.134 392.588 144.86 388.432 144.86C386.473 144.86 384.598 144.657 382.807 144.252C381.051 143.88 379.395 143.357 377.841 142.681C376.287 142.005 374.851 141.228 373.534 140.35C372.25 139.438 371.101 138.492 370.088 137.512L369.378 143.238H358.787V71.8355H371.101V96.1094C373.162 94.2175 375.662 92.6466 378.601 91.3965C381.54 90.1127 384.885 89.4708 388.635 89.4708C392.824 89.4708 396.608 90.1972 399.987 91.6499C403.399 93.1026 406.304 95.0959 408.703 97.6297C411.135 100.13 413.01 103.069 414.328 106.447C415.646 109.792 416.304 113.373 416.304 117.191ZM403.99 117.14C403.99 114.674 403.551 112.41 402.672 110.349C401.828 108.255 400.645 106.464 399.125 104.978C397.639 103.458 395.882 102.292 393.855 101.481C391.828 100.637 389.649 100.214 387.318 100.214C384.986 100.214 382.807 100.637 380.78 101.481C378.753 102.326 376.98 103.491 375.459 104.978C373.939 106.464 372.74 108.255 371.861 110.349C370.983 112.41 370.544 114.674 370.544 117.14C370.544 119.674 370.983 121.988 371.861 124.083C372.74 126.144 373.922 127.934 375.409 129.454C376.929 130.941 378.703 132.107 380.73 132.951C382.757 133.762 384.936 134.167 387.267 134.167C389.564 134.167 391.726 133.762 393.753 132.951C395.78 132.107 397.554 130.941 399.074 129.454C400.595 127.934 401.794 126.127 402.672 124.032C403.551 121.937 403.99 119.64 403.99 117.14ZM469.344 91.0925L447.047 142.073C445.425 145.958 443.905 149.117 442.486 151.549C441.101 153.982 439.597 155.874 437.976 157.225C436.388 158.576 434.58 159.489 432.553 159.962C430.56 160.468 428.161 160.722 425.357 160.722H417.198L417.148 150.586H426.067C427.148 150.586 428.077 150.333 428.854 149.826C429.631 149.353 430.323 148.661 430.932 147.749C431.573 146.87 432.165 145.789 432.705 144.505C433.246 143.255 433.837 141.853 434.479 140.299L413.195 91.0925H426.827L440.712 124.235L441.32 126.87L456.118 91.1432L469.344 91.0925Z" fill="#010329"/>
</svg>
